<svg xmlns="http://www.w3.org/2000/svg" xmlns:xlink="http://www.w3.org/1999/xlink" width="2044pt" height="668pt" viewBox="0.00 0.00 2044.00 668.00">
<g id="graph0" class="graph" transform="scale(1 1) rotate(0) translate(4 663.75)">
<title>G</title>
<polygon fill="white" stroke="none" points="-4,4 -4,-663.75 2040.27,-663.75 2040.27,4 -4,4"/>
<!-- dotenv -->
<g id="node1" class="node">
<title>dotenv</title>
<ellipse fill="#b65353" stroke="black" cx="1043.8" cy="-487.99" rx="27.68" ry="18"/>
<text xml:space="preserve" text-anchor="middle" x="1043.8" y="-484.99" font-family="Helvetica,sans-Serif" font-size="10.00" fill="#ffffff">dotenv</text>
</g>
<!-- src_main -->
<g id="node30" class="node">
<title>src_main</title>
<ellipse fill="#3d3d8f" stroke="black" cx="954.8" cy="-374.36" rx="32.34" ry="18"/>
<text xml:space="preserve" text-anchor="middle" x="954.8" y="-371.36" font-family="Helvetica,sans-Serif" font-size="10.00" fill="#ffffff">src.main</text>
</g>
<!-- dotenv&#45;&gt;src_main -->
<g id="edge1" class="edge">
<title>dotenv-&gt;src_main</title>
<path fill="none" stroke="black" d="M1048.39,-469.76C1050.61,-457.54 1051.38,-441.26 1043.8,-429.36"/>
</g>
<!-- fastapi -->
<g id="node2" class="node">
<title>fastapi</title>
<ellipse fill="#c2c247" stroke="black" cx="894.8" cy="-487.99" rx="27.34" ry="18"/>
<text xml:space="preserve" text-anchor="middle" x="894.8" y="-484.99" font-family="Helvetica,sans-Serif" font-size="10.00" fill="#000000">fastapi</text>
</g>
<!-- src_adapters_input_api_event_controller -->
<g id="node13" class="node">
<title>src_adapters_input_api_event_controller</title>
<ellipse fill="#3a3ab0" stroke="black" cx="957.8" cy="-226.79" rx="61.63" ry="48.08"/>
<text xml:space="preserve" text-anchor="middle" x="957.8" y="-247.79" font-family="Helvetica,sans-Serif" font-size="10.00" fill="#ffffff">src.</text>
<text xml:space="preserve" text-anchor="middle" x="957.8" y="-235.79" font-family="Helvetica,sans-Serif" font-size="10.00" fill="#ffffff">adapters.</text>
<text xml:space="preserve" text-anchor="middle" x="957.8" y="-223.79" font-family="Helvetica,sans-Serif" font-size="10.00" fill="#ffffff">input.</text>
<text xml:space="preserve" text-anchor="middle" x="957.8" y="-211.79" font-family="Helvetica,sans-Serif" font-size="10.00" fill="#ffffff">api.</text>
<text xml:space="preserve" text-anchor="middle" x="957.8" y="-199.79" font-family="Helvetica,sans-Serif" font-size="10.00" fill="#ffffff">event_controller</text>
</g>
<!-- fastapi&#45;&gt;src_adapters_input_api_event_controller -->
<g id="edge2" class="edge">
<title>fastapi-&gt;src_adapters_input_api_event_controller</title>
<path fill="none" stroke="black" d="M894.8,-428.36C903.04,-396.31 904.22,-388.04 913.8,-356.36 921.03,-332.49 929.79,-306.42 937.58,-284.02"/>
<polygon fill="#c2c247" stroke="black" points="940.82,-285.38 940.82,-274.78 934.21,-283.06 940.82,-285.38"/>
<path fill="none" stroke="black" d="M892.19,-469.7C891.06,-458.05 890.78,-442.46 894.8,-429.36"/>
</g>
<!-- fastapi&#45;&gt;src_main -->
<g id="edge3" class="edge">
<title>fastapi-&gt;src_main</title>
<path fill="none" stroke="black" d="M894.8,-428.36C898.54,-413.81 909.82,-402.1 921.61,-393.42"/>
<polygon fill="#c2c247" stroke="black" points="923.41,-396.43 929.78,-387.96 919.52,-390.61 923.41,-396.43"/>
</g>
<!-- pydantic -->
<g id="node3" class="node">
<title>pydantic</title>
<ellipse fill="#40c040" stroke="black" cx="717.8" cy="-487.99" rx="32.02" ry="18"/>
<text xml:space="preserve" text-anchor="middle" x="717.8" y="-484.99" font-family="Helvetica,sans-Serif" font-size="10.00" fill="#000000">pydantic</text>
</g>
<!-- src_adapters_input_api_schemas_event_schemas -->
<g id="node15" class="node">
<title>src_adapters_input_api_schemas_event_schemas</title>
<ellipse fill="#3333cc" stroke="black" cx="717.8" cy="-226.79" rx="60.84" ry="56.57"/>
<text xml:space="preserve" text-anchor="middle" x="717.8" y="-253.79" font-family="Helvetica,sans-Serif" font-size="10.00" fill="#ffffff">src.</text>
<text xml:space="preserve" text-anchor="middle" x="717.8" y="-241.79" font-family="Helvetica,sans-Serif" font-size="10.00" fill="#ffffff">adapters.</text>
<text xml:space="preserve" text-anchor="middle" x="717.8" y="-229.79" font-family="Helvetica,sans-Serif" font-size="10.00" fill="#ffffff">input.</text>
<text xml:space="preserve" text-anchor="middle" x="717.8" y="-217.79" font-family="Helvetica,sans-Serif" font-size="10.00" fill="#ffffff">api.</text>
<text xml:space="preserve" text-anchor="middle" x="717.8" y="-205.79" font-family="Helvetica,sans-Serif" font-size="10.00" fill="#ffffff">schemas.</text>
<text xml:space="preserve" text-anchor="middle" x="717.8" y="-193.79" font-family="Helvetica,sans-Serif" font-size="10.00" fill="#ffffff">event_schemas</text>
</g>
<!-- pydantic&#45;&gt;src_adapters_input_api_schemas_event_schemas -->
<g id="edge4" class="edge">
<title>pydantic-&gt;src_adapters_input_api_schemas_event_schemas</title>
<path fill="none" stroke="black" d="M717.8,-469.58C717.8,-434.52 717.8,-353.75 717.8,-295.19"/>
<polygon fill="#40c040" stroke="black" points="721.3,-295.31 717.8,-285.31 714.3,-295.31 721.3,-295.31"/>
</g>
<!-- sqlalchemy -->
<g id="node4" class="node">
<title>sqlalchemy</title>
<ellipse fill="#0ce9e9" stroke="black" cx="437.8" cy="-487.99" rx="39.7" ry="18"/>
<text xml:space="preserve" text-anchor="middle" x="437.8" y="-484.99" font-family="Helvetica,sans-Serif" font-size="10.00" fill="#000000">sqlalchemy</text>
</g>
<!-- src_adapters_output_database_models_event_model -->
<g id="node19" class="node">
<title>src_adapters_output_database_models_event_model</title>
<ellipse fill="#2323c8" stroke="black" cx="51.8" cy="-226.79" rx="51.8" ry="56.57"/>
<text xml:space="preserve" text-anchor="middle" x="51.8" y="-253.79" font-family="Helvetica,sans-Serif" font-size="10.00" fill="#ffffff">src.</text>
<text xml:space="preserve" text-anchor="middle" x="51.8" y="-241.79" font-family="Helvetica,sans-Serif" font-size="10.00" fill="#ffffff">adapters.</text>
<text xml:space="preserve" text-anchor="middle" x="51.8" y="-229.79" font-family="Helvetica,sans-Serif" font-size="10.00" fill="#ffffff">output.</text>
<text xml:space="preserve" text-anchor="middle" x="51.8" y="-217.79" font-family="Helvetica,sans-Serif" font-size="10.00" fill="#ffffff">database.</text>
<text xml:space="preserve" text-anchor="middle" x="51.8" y="-205.79" font-family="Helvetica,sans-Serif" font-size="10.00" fill="#ffffff">models.</text>
<text xml:space="preserve" text-anchor="middle" x="51.8" y="-193.79" font-family="Helvetica,sans-Serif" font-size="10.00" fill="#ffffff">event_model</text>
</g>
<!-- sqlalchemy&#45;&gt;src_adapters_output_database_models_event_model -->
<g id="edge5" class="edge">
<title>sqlalchemy-&gt;src_adapters_output_database_models_event_model</title>
<path fill="none" stroke="black" d="M324.8,-373.36C319.96,-344.78 303.09,-344.34 286.8,-320.36"/>
<path fill="none" stroke="black" d="M411.85,-473.93C381.01,-456.44 332.72,-422.13 324.8,-375.36"/>
</g>
<!-- src_adapters_output_database_repositories_postgresql_event_repository -->
<g id="node21" class="node">
<title>src_adapters_output_database_repositories_postgresql_event_repository</title>
<ellipse fill="#2b2bac" stroke="black" cx="324.8" cy="-226.79" rx="100.15" ry="56.57"/>
<text xml:space="preserve" text-anchor="middle" x="324.8" y="-253.79" font-family="Helvetica,sans-Serif" font-size="10.00" fill="#ffffff">src.</text>
<text xml:space="preserve" text-anchor="middle" x="324.8" y="-241.79" font-family="Helvetica,sans-Serif" font-size="10.00" fill="#ffffff">adapters.</text>
<text xml:space="preserve" text-anchor="middle" x="324.8" y="-229.79" font-family="Helvetica,sans-Serif" font-size="10.00" fill="#ffffff">output.</text>
<text xml:space="preserve" text-anchor="middle" x="324.8" y="-217.79" font-family="Helvetica,sans-Serif" font-size="10.00" fill="#ffffff">database.</text>
<text xml:space="preserve" text-anchor="middle" x="324.8" y="-205.79" font-family="Helvetica,sans-Serif" font-size="10.00" fill="#ffffff">repositories.</text>
<text xml:space="preserve" text-anchor="middle" x="324.8" y="-193.79" font-family="Helvetica,sans-Serif" font-size="10.00" fill="#ffffff">postgresql_event_repository</text>
</g>
<!-- sqlalchemy&#45;&gt;src_adapters_output_database_repositories_postgresql_event_repository -->
<g id="edge6" class="edge">
<title>sqlalchemy-&gt;src_adapters_output_database_repositories_postgresql_event_repository</title>
<path fill="none" stroke="black" d="M324.8,-373.36C320.87,-350.14 324.8,-343.92 324.8,-320.36"/>
</g>
<!-- sqlalchemy&#45;&gt;src_main -->
<g id="edge7" class="edge">
<title>sqlalchemy-&gt;src_main</title>
<path fill="none" stroke="black" d="M463.78,-473.96C470.8,-470.8 478.48,-467.68 485.8,-465.36 638.71,-416.98 828.33,-390.33 911.87,-380.19"/>
<polygon fill="#0ce9e9" stroke="black" points="912.15,-383.68 921.67,-379.02 911.32,-376.73 912.15,-383.68"/>
</g>
<!-- sqlalchemy_ext -->
<g id="node5" class="node">
<title>sqlalchemy_ext</title>
<ellipse fill="#4cb3b3" stroke="black" cx="1138.8" cy="-487.99" rx="49.39" ry="18"/>
<text xml:space="preserve" text-anchor="middle" x="1138.8" y="-484.99" font-family="Helvetica,sans-Serif" font-size="10.00" fill="#000000">sqlalchemy.ext</text>
</g>
<!-- sqlalchemy_ext&#45;&gt;src_main -->
<g id="edge8" class="edge">
<title>sqlalchemy_ext-&gt;src_main</title>
<path fill="none" stroke="black" d="M1104.1,-475.06C1083.06,-465.94 1057.68,-451.17 1043.8,-429.36"/>
</g>
<!-- sqlalchemy_ext_asyncio -->
<g id="node6" class="node">
<title>sqlalchemy_ext_asyncio</title>
<ellipse fill="#53b6b6" stroke="black" cx="839.8" cy="-603.19" rx="48.65" ry="31.11"/>
<text xml:space="preserve" text-anchor="middle" x="839.8" y="-612.19" font-family="Helvetica,sans-Serif" font-size="10.00" fill="#000000">sqlalchemy.</text>
<text xml:space="preserve" text-anchor="middle" x="839.8" y="-600.19" font-family="Helvetica,sans-Serif" font-size="10.00" fill="#000000">ext.</text>
<text xml:space="preserve" text-anchor="middle" x="839.8" y="-588.19" font-family="Helvetica,sans-Serif" font-size="10.00" fill="#000000">asyncio</text>
</g>
<!-- sqlalchemy_ext_asyncio&#45;&gt;src_main -->
<g id="edge9" class="edge">
<title>sqlalchemy_ext_asyncio-&gt;src_main</title>
<path fill="none" stroke="black" d="M840.58,-571.75C842.11,-543.48 846.46,-500.55 858.8,-465.36 865.13,-447.31 867.86,-442.45 880.8,-428.36 893.05,-415.03 909.15,-403.01 923.21,-393.81"/>
<polygon fill="#53b6b6" stroke="black" points="924.69,-397.02 931.27,-388.71 920.94,-391.1 924.69,-397.02"/>
</g>
<!-- sqlalchemy_future -->
<g id="node7" class="node">
<title>sqlalchemy_future</title>
<ellipse fill="#53b6b6" stroke="black" cx="543.8" cy="-487.99" rx="48.65" ry="22.63"/>
<text xml:space="preserve" text-anchor="middle" x="543.8" y="-490.99" font-family="Helvetica,sans-Serif" font-size="10.00" fill="#000000">sqlalchemy.</text>
<text xml:space="preserve" text-anchor="middle" x="543.8" y="-478.99" font-family="Helvetica,sans-Serif" font-size="10.00" fill="#000000">future</text>
</g>
<!-- sqlalchemy_future&#45;&gt;src_adapters_output_database_repositories_postgresql_event_repository -->
<g id="edge10" class="edge">
<title>sqlalchemy_future-&gt;src_adapters_output_database_repositories_postgresql_event_repository</title>
<path fill="none" stroke="black" d="M511.96,-470.8C451.22,-438.87 324.8,-366.82 324.8,-320.36"/>
</g>
<!-- sqlalchemy_orm -->
<g id="node8" class="node">
<title>sqlalchemy_orm</title>
<ellipse fill="#31c4c4" stroke="black" cx="328.8" cy="-487.99" rx="51.73" ry="18"/>
<text xml:space="preserve" text-anchor="middle" x="328.8" y="-484.99" font-family="Helvetica,sans-Serif" font-size="10.00" fill="#000000">sqlalchemy.orm</text>
</g>
<!-- sqlalchemy_orm&#45;&gt;src_adapters_output_database_models_event_model -->
<g id="edge11" class="edge">
<title>sqlalchemy_orm-&gt;src_adapters_output_database_models_event_model</title>
<path fill="none" stroke="black" d="M286.8,-373.36C290.74,-350.14 300.04,-339.85 286.8,-320.36"/>
<path fill="none" stroke="black" d="M316.28,-470.16C301.86,-448.8 280.86,-410.48 286.8,-375.36"/>
</g>
<!-- sqlalchemy_orm&#45;&gt;src_adapters_output_database_repositories_postgresql_event_repository -->
<g id="edge12" class="edge">
<title>sqlalchemy_orm-&gt;src_adapters_output_database_repositories_postgresql_event_repository</title>
<path fill="none" stroke="black" d="M286.8,-373.36C291.64,-344.78 324.8,-349.35 324.8,-320.36"/>
<path fill="none" stroke="black" d="M324.8,-319.36C324.8,-311.38 324.8,-303.01 324.8,-294.71"/>
<polygon fill="#31c4c4" stroke="black" points="328.3,-294.99 324.8,-284.99 321.3,-294.99 328.3,-294.99"/>
</g>
<!-- sqlalchemy_types -->
<g id="node9" class="node">
<title>sqlalchemy_types</title>
<ellipse fill="#47c2c2" stroke="black" cx="343.8" cy="-603.19" rx="48.65" ry="22.63"/>
<text xml:space="preserve" text-anchor="middle" x="343.8" y="-606.19" font-family="Helvetica,sans-Serif" font-size="10.00" fill="#000000">sqlalchemy.</text>
<text xml:space="preserve" text-anchor="middle" x="343.8" y="-594.19" font-family="Helvetica,sans-Serif" font-size="10.00" fill="#000000">types</text>
</g>
<!-- sqlalchemy_types&#45;&gt;sqlalchemy -->
<g id="edge13" class="edge">
<title>sqlalchemy_types-&gt;sqlalchemy</title>
<path fill="none" stroke="black" d="M360.83,-581.69C376.61,-562.68 400.13,-534.35 417.02,-514.02"/>
<polygon fill="#47c2c2" stroke="black" points="419.59,-516.4 423.29,-506.47 414.21,-511.92 419.59,-516.4"/>
</g>
<!-- sqlalchemy_types&#45;&gt;src_adapters_output_database_models_event_model -->
<g id="edge14" class="edge">
<title>sqlalchemy_types-&gt;src_adapters_output_database_models_event_model</title>
<path fill="none" stroke="black" d="M286.8,-319.36C242.42,-254.04 183.16,-319.23 112.8,-283.36 107.67,-280.75 102.64,-277.58 97.82,-274.1"/>
<polygon fill="#47c2c2" stroke="black" points="100.05,-271.4 90,-268.02 95.75,-276.92 100.05,-271.4"/>
<path fill="none" stroke="black" d="M320.91,-583.08C302.61,-566.19 278.32,-539.77 267.8,-510.62 260.46,-490.26 262.67,-404.27 272.8,-356.36 276.35,-339.57 296.45,-334.56 286.8,-320.36"/>
</g>
<!-- src_adapters -->
<g id="node10" class="node">
<title>src_adapters</title>
<ellipse fill="#4949ac" stroke="black" cx="837.8" cy="-18" rx="42.71" ry="18"/>
<text xml:space="preserve" text-anchor="middle" x="837.8" y="-15" font-family="Helvetica,sans-Serif" font-size="10.00" fill="#ffffff">src.adapters</text>
</g>
<!-- src_adapters_input -->
<g id="node11" class="node">
<title>src_adapters_input</title>
<ellipse fill="#4040c0" stroke="black" cx="1077.8" cy="-103.11" rx="40.8" ry="31.11"/>
<text xml:space="preserve" text-anchor="middle" x="1077.8" y="-112.11" font-family="Helvetica,sans-Serif" font-size="10.00" fill="#ffffff">src.</text>
<text xml:space="preserve" text-anchor="middle" x="1077.8" y="-100.11" font-family="Helvetica,sans-Serif" font-size="10.00" fill="#ffffff">adapters.</text>
<text xml:space="preserve" text-anchor="middle" x="1077.8" y="-88.11" font-family="Helvetica,sans-Serif" font-size="10.00" fill="#ffffff">input</text>
</g>
<!-- src_adapters_input&#45;&gt;src_adapters -->
<g id="edge15" class="edge">
<title>src_adapters_input-&gt;src_adapters</title>
<path fill="none" stroke="black" d="M1040.83,-89.31C997.71,-74.37 926.53,-49.73 880.93,-33.93"/>
<polygon fill="#4040c0" stroke="black" points="882.22,-30.68 871.63,-30.71 879.93,-37.29 882.22,-30.68"/>
</g>
<!-- src_adapters_input_api -->
<g id="node12" class="node">
<title>src_adapters_input_api</title>
<ellipse fill="#4040c0" stroke="black" cx="1077.8" cy="-226.79" rx="40.8" ry="39.6"/>
<text xml:space="preserve" text-anchor="middle" x="1077.8" y="-241.79" font-family="Helvetica,sans-Serif" font-size="10.00" fill="#ffffff">src.</text>
<text xml:space="preserve" text-anchor="middle" x="1077.8" y="-229.79" font-family="Helvetica,sans-Serif" font-size="10.00" fill="#ffffff">adapters.</text>
<text xml:space="preserve" text-anchor="middle" x="1077.8" y="-217.79" font-family="Helvetica,sans-Serif" font-size="10.00" fill="#ffffff">input.</text>
<text xml:space="preserve" text-anchor="middle" x="1077.8" y="-205.79" font-family="Helvetica,sans-Serif" font-size="10.00" fill="#ffffff">api</text>
</g>
<!-- src_adapters_input_api&#45;&gt;src_adapters_input -->
<g id="edge16" class="edge">
<title>src_adapters_input_api-&gt;src_adapters_input</title>
<path fill="none" stroke="black" d="M1077.8,-186.96C1077.8,-173.83 1077.8,-159.13 1077.8,-145.79"/>
<polygon fill="#4040c0" stroke="black" points="1081.3,-146.01 1077.8,-136.01 1074.3,-146.01 1081.3,-146.01"/>
</g>
<!-- src_adapters_input_api_event_controller&#45;&gt;src_adapters_input_api -->
<g id="edge17" class="edge">
<title>src_adapters_input_api_event_controller-&gt;src_adapters_input_api</title>
<path fill="none" stroke="black" d="M1019.68,-226.79C1021.66,-226.79 1023.63,-226.79 1025.61,-226.79"/>
<polygon fill="#3a3ab0" stroke="black" points="1025.42,-230.29 1035.42,-226.79 1025.42,-223.29 1025.42,-230.29"/>
</g>
<!-- src_adapters_input_api_schemas -->
<g id="node14" class="node">
<title>src_adapters_input_api_schemas</title>
<ellipse fill="#4040c0" stroke="black" cx="837.8" cy="-226.79" rx="40.8" ry="48.08"/>
<text xml:space="preserve" text-anchor="middle" x="837.8" y="-247.79" font-family="Helvetica,sans-Serif" font-size="10.00" fill="#ffffff">src.</text>
<text xml:space="preserve" text-anchor="middle" x="837.8" y="-235.79" font-family="Helvetica,sans-Serif" font-size="10.00" fill="#ffffff">adapters.</text>
<text xml:space="preserve" text-anchor="middle" x="837.8" y="-223.79" font-family="Helvetica,sans-Serif" font-size="10.00" fill="#ffffff">input.</text>
<text xml:space="preserve" text-anchor="middle" x="837.8" y="-211.79" font-family="Helvetica,sans-Serif" font-size="10.00" fill="#ffffff">api.</text>
<text xml:space="preserve" text-anchor="middle" x="837.8" y="-199.79" font-family="Helvetica,sans-Serif" font-size="10.00" fill="#ffffff">schemas</text>
</g>
<!-- src_adapters_input_api_schemas&#45;&gt;src_adapters_input_api_event_controller -->
<g id="edge18" class="edge">
<title>src_adapters_input_api_schemas-&gt;src_adapters_input_api_event_controller</title>
<path fill="none" stroke="black" d="M879.05,-226.79C880.9,-226.79 882.75,-226.79 884.6,-226.79"/>
<polygon fill="#4040c0" stroke="black" points="884.46,-230.29 894.46,-226.79 884.46,-223.29 884.46,-230.29"/>
</g>
<!-- src_adapters_input_api_schemas_event_schemas&#45;&gt;src_adapters_input_api_event_controller -->
<g id="edge19" class="edge">
<title>src_adapters_input_api_schemas_event_schemas-&gt;src_adapters_input_api_event_controller</title>
<path fill="none" stroke="black" d="M754.48,-272.29C766.58,-284.02 781.03,-295.09 796.8,-301.36 830.67,-314.82 844.94,-314.82 878.8,-301.36 892.91,-295.76 905.95,-286.3 917.21,-275.98"/>
<polygon fill="#3333cc" stroke="black" points="919.64,-278.5 924.37,-269.02 914.76,-273.48 919.64,-278.5"/>
</g>
<!-- src_adapters_input_api_schemas_event_schemas&#45;&gt;src_adapters_input_api_schemas -->
<g id="edge20" class="edge">
<title>src_adapters_input_api_schemas_event_schemas-&gt;src_adapters_input_api_schemas</title>
<path fill="none" stroke="black" d="M778.74,-226.79C780.99,-226.79 783.24,-226.79 785.49,-226.79"/>
<polygon fill="#3333cc" stroke="black" points="785.22,-230.29 795.22,-226.79 785.22,-223.29 785.22,-230.29"/>
</g>
<!-- src_adapters_output -->
<g id="node16" class="node">
<title>src_adapters_output</title>
<ellipse fill="#4040c0" stroke="black" cx="597.8" cy="-103.11" rx="40.8" ry="31.11"/>
<text xml:space="preserve" text-anchor="middle" x="597.8" y="-112.11" font-family="Helvetica,sans-Serif" font-size="10.00" fill="#ffffff">src.</text>
<text xml:space="preserve" text-anchor="middle" x="597.8" y="-100.11" font-family="Helvetica,sans-Serif" font-size="10.00" fill="#ffffff">adapters.</text>
<text xml:space="preserve" text-anchor="middle" x="597.8" y="-88.11" font-family="Helvetica,sans-Serif" font-size="10.00" fill="#ffffff">output</text>
</g>
<!-- src_adapters_output&#45;&gt;src_adapters -->
<g id="edge21" class="edge">
<title>src_adapters_output-&gt;src_adapters</title>
<path fill="none" stroke="black" d="M634.78,-89.31C677.9,-74.37 749.08,-49.73 794.68,-33.93"/>
<polygon fill="#4040c0" stroke="black" points="795.67,-37.29 803.98,-30.71 793.38,-30.68 795.67,-37.29"/>
</g>
<!-- src_adapters_output_database -->
<g id="node17" class="node">
<title>src_adapters_output_database</title>
<ellipse fill="#3838a8" stroke="black" cx="597.8" cy="-226.79" rx="40.8" ry="39.6"/>
<text xml:space="preserve" text-anchor="middle" x="597.8" y="-241.79" font-family="Helvetica,sans-Serif" font-size="10.00" fill="#ffffff">src.</text>
<text xml:space="preserve" text-anchor="middle" x="597.8" y="-229.79" font-family="Helvetica,sans-Serif" font-size="10.00" fill="#ffffff">adapters.</text>
<text xml:space="preserve" text-anchor="middle" x="597.8" y="-217.79" font-family="Helvetica,sans-Serif" font-size="10.00" fill="#ffffff">output.</text>
<text xml:space="preserve" text-anchor="middle" x="597.8" y="-205.79" font-family="Helvetica,sans-Serif" font-size="10.00" fill="#ffffff">database</text>
</g>
<!-- src_adapters_output_database&#45;&gt;src_adapters_output -->
<g id="edge22" class="edge">
<title>src_adapters_output_database-&gt;src_adapters_output</title>
<path fill="none" stroke="black" d="M597.8,-186.96C597.8,-173.83 597.8,-159.13 597.8,-145.79"/>
<polygon fill="#3838a8" stroke="black" points="601.3,-146.01 597.8,-136.01 594.3,-146.01 601.3,-146.01"/>
</g>
<!-- src_adapters_output_database_models -->
<g id="node18" class="node">
<title>src_adapters_output_database_models</title>
<ellipse fill="#3333cc" stroke="black" cx="163.8" cy="-226.79" rx="42.37" ry="48.08"/>
<text xml:space="preserve" text-anchor="middle" x="163.8" y="-247.79" font-family="Helvetica,sans-Serif" font-size="10.00" fill="#ffffff">src.</text>
<text xml:space="preserve" text-anchor="middle" x="163.8" y="-235.79" font-family="Helvetica,sans-Serif" font-size="10.00" fill="#ffffff">adapters.</text>
<text xml:space="preserve" text-anchor="middle" x="163.8" y="-223.79" font-family="Helvetica,sans-Serif" font-size="10.00" fill="#ffffff">output.</text>
<text xml:space="preserve" text-anchor="middle" x="163.8" y="-211.79" font-family="Helvetica,sans-Serif" font-size="10.00" fill="#ffffff">database.</text>
<text xml:space="preserve" text-anchor="middle" x="163.8" y="-199.79" font-family="Helvetica,sans-Serif" font-size="10.00" fill="#ffffff">models</text>
</g>
<!-- src_adapters_output_database_models&#45;&gt;src_adapters_output_database -->
<g id="edge23" class="edge">
<title>src_adapters_output_database_models-&gt;src_adapters_output_database</title>
<path fill="none" stroke="black" d="M186.73,-267.35C196.57,-280.73 209.39,-294.06 224.8,-301.36 256.33,-316.3 507.4,-316.56 538.8,-301.36 552.42,-294.77 563.85,-283.35 572.91,-271.39"/>
<polygon fill="#3333cc" stroke="black" points="575.61,-273.64 578.5,-263.45 569.88,-269.61 575.61,-273.64"/>
</g>
<!-- src_adapters_output_database_models&#45;&gt;src_adapters_output_database_repositories_postgresql_event_repository -->
<g id="edge24" class="edge">
<title>src_adapters_output_database_models-&gt;src_adapters_output_database_repositories_postgresql_event_repository</title>
<path fill="none" stroke="black" d="M206.57,-226.79C208.82,-226.79 211.07,-226.79 213.32,-226.79"/>
<polygon fill="#3333cc" stroke="black" points="213.07,-230.29 223.07,-226.79 213.07,-223.29 213.07,-230.29"/>
</g>
<!-- src_adapters_output_database_models_event_model&#45;&gt;src_adapters_output_database -->
<g id="edge25" class="edge">
<title>src_adapters_output_database_models_event_model-&gt;src_adapters_output_database</title>
<path fill="none" stroke="black" d="M83.43,-272.19C94.13,-283.91 107.14,-295.01 121.8,-301.36 164.32,-319.77 497.1,-321.55 538.8,-301.36 552.42,-294.77 563.85,-283.35 572.91,-271.39"/>
<polygon fill="#2323c8" stroke="black" points="575.61,-273.64 578.5,-263.45 569.88,-269.61 575.61,-273.64"/>
</g>
<!-- src_adapters_output_database_models_event_model&#45;&gt;src_adapters_output_database_models -->
<g id="edge26" class="edge">
<title>src_adapters_output_database_models_event_model-&gt;src_adapters_output_database_models</title>
<path fill="none" stroke="black" d="M103.87,-226.79C105.85,-226.79 107.84,-226.79 109.82,-226.79"/>
<polygon fill="#2323c8" stroke="black" points="109.68,-230.29 119.68,-226.79 109.68,-223.29 109.68,-230.29"/>
</g>
<!-- src_adapters_output_database_models_event_model&#45;&gt;src_adapters_output_database_repositories_postgresql_event_repository -->
<g id="edge27" class="edge">
<title>src_adapters_output_database_models_event_model-&gt;src_adapters_output_database_repositories_postgresql_event_repository</title>
<path fill="none" stroke="black" d="M83.43,-272.19C94.13,-283.91 107.14,-295.01 121.8,-301.36 156.06,-316.19 169.92,-311.68 205.8,-301.36 223.17,-296.37 240.46,-288.02 256.25,-278.67"/>
<polygon fill="#2323c8" stroke="black" points="257.91,-281.76 264.59,-273.54 254.24,-275.8 257.91,-281.76"/>
</g>
<!-- src_adapters_output_database_repositories -->
<g id="node20" class="node">
<title>src_adapters_output_database_repositories</title>
<ellipse fill="#4040c0" stroke="black" cx="490.8" cy="-226.79" rx="47.86" ry="48.08"/>
<text xml:space="preserve" text-anchor="middle" x="490.8" y="-247.79" font-family="Helvetica,sans-Serif" font-size="10.00" fill="#ffffff">src.</text>
<text xml:space="preserve" text-anchor="middle" x="490.8" y="-235.79" font-family="Helvetica,sans-Serif" font-size="10.00" fill="#ffffff">adapters.</text>
<text xml:space="preserve" text-anchor="middle" x="490.8" y="-223.79" font-family="Helvetica,sans-Serif" font-size="10.00" fill="#ffffff">output.</text>
<text xml:space="preserve" text-anchor="middle" x="490.8" y="-211.79" font-family="Helvetica,sans-Serif" font-size="10.00" fill="#ffffff">database.</text>
<text xml:space="preserve" text-anchor="middle" x="490.8" y="-199.79" font-family="Helvetica,sans-Serif" font-size="10.00" fill="#ffffff">repositories</text>
</g>
<!-- src_adapters_output_database_repositories&#45;&gt;src_adapters_output_database -->
<g id="edge28" class="edge">
<title>src_adapters_output_database_repositories-&gt;src_adapters_output_database</title>
<path fill="none" stroke="black" d="M538.87,-226.79C541.02,-226.79 543.17,-226.79 545.32,-226.79"/>
<polygon fill="#4040c0" stroke="black" points="545.31,-230.29 555.31,-226.79 545.31,-223.29 545.31,-230.29"/>
</g>
<!-- src_adapters_output_database_repositories_postgresql_event_repository&#45;&gt;src_adapters_output_database -->
<g id="edge29" class="edge">
<title>src_adapters_output_database_repositories_postgresql_event_repository-&gt;src_adapters_output_database</title>
<path fill="none" stroke="black" d="M383.48,-272.93C401.51,-284.52 422.09,-295.37 442.8,-301.36 483.79,-313.23 500.4,-319.95 538.8,-301.36 552.42,-294.77 563.85,-283.35 572.91,-271.39"/>
<polygon fill="#2b2bac" stroke="black" points="575.61,-273.64 578.5,-263.45 569.88,-269.61 575.61,-273.64"/>
</g>
<!-- src_adapters_output_database_repositories_postgresql_event_repository&#45;&gt;src_adapters_output_database_repositories -->
<g id="edge30" class="edge">
<title>src_adapters_output_database_repositories_postgresql_event_repository-&gt;src_adapters_output_database_repositories</title>
<path fill="none" stroke="black" d="M425.31,-226.79C427.27,-226.79 429.24,-226.79 431.2,-226.79"/>
<polygon fill="#2b2bac" stroke="black" points="430.94,-230.29 440.94,-226.79 430.94,-223.29 430.94,-230.29"/>
</g>
<!-- src_core_application_ports_input -->
<g id="node22" class="node">
<title>src_core_application_ports_input</title>
<ellipse fill="#4c4cb3" stroke="black" cx="1156.8" cy="-603.19" rx="47.09" ry="48.08"/>
<text xml:space="preserve" text-anchor="middle" x="1156.8" y="-624.19" font-family="Helvetica,sans-Serif" font-size="10.00" fill="#ffffff">src.</text>
<text xml:space="preserve" text-anchor="middle" x="1156.8" y="-612.19" font-family="Helvetica,sans-Serif" font-size="10.00" fill="#ffffff">core.</text>
<text xml:space="preserve" text-anchor="middle" x="1156.8" y="-600.19" font-family="Helvetica,sans-Serif" font-size="10.00" fill="#ffffff">application.</text>
<text xml:space="preserve" text-anchor="middle" x="1156.8" y="-588.19" font-family="Helvetica,sans-Serif" font-size="10.00" fill="#ffffff">ports.</text>
<text xml:space="preserve" text-anchor="middle" x="1156.8" y="-576.19" font-family="Helvetica,sans-Serif" font-size="10.00" fill="#ffffff">input</text>
</g>
<!-- src_core_application_ports_input_process_event_input_port -->
<g id="node23" class="node">
<title>src_core_application_ports_input_process_event_input_port</title>
<ellipse fill="#4747c2" stroke="black" cx="998.8" cy="-603.19" rx="92.69" ry="56.57"/>
<text xml:space="preserve" text-anchor="middle" x="998.8" y="-630.19" font-family="Helvetica,sans-Serif" font-size="10.00" fill="#ffffff">src.</text>
<text xml:space="preserve" text-anchor="middle" x="998.8" y="-618.19" font-family="Helvetica,sans-Serif" font-size="10.00" fill="#ffffff">core.</text>
<text xml:space="preserve" text-anchor="middle" x="998.8" y="-606.19" font-family="Helvetica,sans-Serif" font-size="10.00" fill="#ffffff">application.</text>
<text xml:space="preserve" text-anchor="middle" x="998.8" y="-594.19" font-family="Helvetica,sans-Serif" font-size="10.00" fill="#ffffff">ports.</text>
<text xml:space="preserve" text-anchor="middle" x="998.8" y="-582.19" font-family="Helvetica,sans-Serif" font-size="10.00" fill="#ffffff">input.</text>
<text xml:space="preserve" text-anchor="middle" x="998.8" y="-570.19" font-family="Helvetica,sans-Serif" font-size="10.00" fill="#ffffff">process_event_input_port</text>
</g>
<!-- src_core_application_ports_input_process_event_input_port&#45;&gt;src_core_application_ports_input -->
<g id="edge31" class="edge">
<title>src_core_application_ports_input_process_event_input_port-&gt;src_core_application_ports_input</title>
<path fill="none" stroke="black" d="M1091.69,-603.19C1093.79,-603.19 1095.89,-603.19 1098,-603.19"/>
<polygon fill="#4747c2" stroke="black" points="1097.73,-606.69 1107.73,-603.19 1097.73,-599.69 1097.73,-606.69"/>
</g>
<!-- src_core_application_ports_output -->
<g id="node24" class="node">
<title>src_core_application_ports_output</title>
<ellipse fill="#4c4cb3" stroke="black" cx="1492.8" cy="-603.19" rx="47.09" ry="48.08"/>
<text xml:space="preserve" text-anchor="middle" x="1492.8" y="-624.19" font-family="Helvetica,sans-Serif" font-size="10.00" fill="#ffffff">src.</text>
<text xml:space="preserve" text-anchor="middle" x="1492.8" y="-612.19" font-family="Helvetica,sans-Serif" font-size="10.00" fill="#ffffff">core.</text>
<text xml:space="preserve" text-anchor="middle" x="1492.8" y="-600.19" font-family="Helvetica,sans-Serif" font-size="10.00" fill="#ffffff">application.</text>
<text xml:space="preserve" text-anchor="middle" x="1492.8" y="-588.19" font-family="Helvetica,sans-Serif" font-size="10.00" fill="#ffffff">ports.</text>
<text xml:space="preserve" text-anchor="middle" x="1492.8" y="-576.19" font-family="Helvetica,sans-Serif" font-size="10.00" fill="#ffffff">output</text>
</g>
<!-- src_core_application_ports_output_event_repository_output_port -->
<g id="node25" class="node">
<title>src_core_application_ports_output_event_repository_output_port</title>
<ellipse fill="#4747c2" stroke="black" cx="1324.8" cy="-603.19" rx="103.3" ry="56.57"/>
<text xml:space="preserve" text-anchor="middle" x="1324.8" y="-630.19" font-family="Helvetica,sans-Serif" font-size="10.00" fill="#ffffff">src.</text>
<text xml:space="preserve" text-anchor="middle" x="1324.8" y="-618.19" font-family="Helvetica,sans-Serif" font-size="10.00" fill="#ffffff">core.</text>
<text xml:space="preserve" text-anchor="middle" x="1324.8" y="-606.19" font-family="Helvetica,sans-Serif" font-size="10.00" fill="#ffffff">application.</text>
<text xml:space="preserve" text-anchor="middle" x="1324.8" y="-594.19" font-family="Helvetica,sans-Serif" font-size="10.00" fill="#ffffff">ports.</text>
<text xml:space="preserve" text-anchor="middle" x="1324.8" y="-582.19" font-family="Helvetica,sans-Serif" font-size="10.00" fill="#ffffff">output.</text>
<text xml:space="preserve" text-anchor="middle" x="1324.8" y="-570.19" font-family="Helvetica,sans-Serif" font-size="10.00" fill="#ffffff">event_repository_output_port</text>
</g>
<!-- src_core_application_ports_output_event_repository_output_port&#45;&gt;src_core_application_ports_output -->
<g id="edge32" class="edge">
<title>src_core_application_ports_output_event_repository_output_port-&gt;src_core_application_ports_output</title>
<path fill="none" stroke="black" d="M1428.49,-603.19C1430.33,-603.19 1432.17,-603.19 1434.01,-603.19"/>
<polygon fill="#4747c2" stroke="black" points="1433.81,-606.69 1443.81,-603.19 1433.81,-599.69 1433.81,-606.69"/>
</g>
<!-- src_core_application_use_cases -->
<g id="node26" class="node">
<title>src_core_application_use_cases</title>
<ellipse fill="#4c4cb3" stroke="black" cx="1806.8" cy="-603.19" rx="47.09" ry="39.6"/>
<text xml:space="preserve" text-anchor="middle" x="1806.8" y="-618.19" font-family="Helvetica,sans-Serif" font-size="10.00" fill="#ffffff">src.</text>
<text xml:space="preserve" text-anchor="middle" x="1806.8" y="-606.19" font-family="Helvetica,sans-Serif" font-size="10.00" fill="#ffffff">core.</text>
<text xml:space="preserve" text-anchor="middle" x="1806.8" y="-594.19" font-family="Helvetica,sans-Serif" font-size="10.00" fill="#ffffff">application.</text>
<text xml:space="preserve" text-anchor="middle" x="1806.8" y="-582.19" font-family="Helvetica,sans-Serif" font-size="10.00" fill="#ffffff">use_cases</text>
</g>
<!-- src_core_application_use_cases_process_event_use_case -->
<g id="node27" class="node">
<title>src_core_application_use_cases_process_event_use_case</title>
<ellipse fill="#4747c2" stroke="black" cx="1649.8" cy="-603.19" rx="91.51" ry="48.08"/>
<text xml:space="preserve" text-anchor="middle" x="1649.8" y="-624.19" font-family="Helvetica,sans-Serif" font-size="10.00" fill="#ffffff">src.</text>
<text xml:space="preserve" text-anchor="middle" x="1649.8" y="-612.19" font-family="Helvetica,sans-Serif" font-size="10.00" fill="#ffffff">core.</text>
<text xml:space="preserve" text-anchor="middle" x="1649.8" y="-600.19" font-family="Helvetica,sans-Serif" font-size="10.00" fill="#ffffff">application.</text>
<text xml:space="preserve" text-anchor="middle" x="1649.8" y="-588.19" font-family="Helvetica,sans-Serif" font-size="10.00" fill="#ffffff">use_cases.</text>
<text xml:space="preserve" text-anchor="middle" x="1649.8" y="-576.19" font-family="Helvetica,sans-Serif" font-size="10.00" fill="#ffffff">process_event_use_case</text>
</g>
<!-- src_core_application_use_cases_process_event_use_case&#45;&gt;src_core_application_use_cases -->
<g id="edge33" class="edge">
<title>src_core_application_use_cases_process_event_use_case-&gt;src_core_application_use_cases</title>
<path fill="none" stroke="black" d="M1741.8,-603.19C1743.8,-603.19 1745.81,-603.19 1747.82,-603.19"/>
<polygon fill="#4747c2" stroke="black" points="1747.8,-606.69 1757.8,-603.19 1747.8,-599.69 1747.8,-606.69"/>
</g>
<!-- src_core_domain_entities -->
<g id="node28" class="node">
<title>src_core_domain_entities</title>
<ellipse fill="#4c4cb3" stroke="black" cx="1999.8" cy="-603.19" rx="36.47" ry="39.6"/>
<text xml:space="preserve" text-anchor="middle" x="1999.8" y="-618.19" font-family="Helvetica,sans-Serif" font-size="10.00" fill="#ffffff">src.</text>
<text xml:space="preserve" text-anchor="middle" x="1999.8" y="-606.19" font-family="Helvetica,sans-Serif" font-size="10.00" fill="#ffffff">core.</text>
<text xml:space="preserve" text-anchor="middle" x="1999.8" y="-594.19" font-family="Helvetica,sans-Serif" font-size="10.00" fill="#ffffff">domain.</text>
<text xml:space="preserve" text-anchor="middle" x="1999.8" y="-582.19" font-family="Helvetica,sans-Serif" font-size="10.00" fill="#ffffff">entities</text>
</g>
<!-- src_core_domain_entities_event -->
<g id="node29" class="node">
<title>src_core_domain_entities_event</title>
<ellipse fill="#4747c2" stroke="black" cx="1908.8" cy="-603.19" rx="36.47" ry="48.08"/>
<text xml:space="preserve" text-anchor="middle" x="1908.8" y="-624.19" font-family="Helvetica,sans-Serif" font-size="10.00" fill="#ffffff">src.</text>
<text xml:space="preserve" text-anchor="middle" x="1908.8" y="-612.19" font-family="Helvetica,sans-Serif" font-size="10.00" fill="#ffffff">core.</text>
<text xml:space="preserve" text-anchor="middle" x="1908.8" y="-600.19" font-family="Helvetica,sans-Serif" font-size="10.00" fill="#ffffff">domain.</text>
<text xml:space="preserve" text-anchor="middle" x="1908.8" y="-588.19" font-family="Helvetica,sans-Serif" font-size="10.00" fill="#ffffff">entities.</text>
<text xml:space="preserve" text-anchor="middle" x="1908.8" y="-576.19" font-family="Helvetica,sans-Serif" font-size="10.00" fill="#ffffff">event</text>
</g>
<!-- src_core_domain_entities_event&#45;&gt;src_core_domain_entities -->
<g id="edge34" class="edge">
<title>src_core_domain_entities_event-&gt;src_core_domain_entities</title>
<path fill="none" stroke="black" d="M1945.77,-603.19C1947.75,-603.19 1949.74,-603.19 1951.72,-603.19"/>
<polygon fill="#4747c2" stroke="black" points="1951.57,-606.69 1961.57,-603.19 1951.57,-599.69 1951.57,-606.69"/>
</g>
<!-- uvicorn -->
<g id="node31" class="node">
<title>uvicorn</title>
<ellipse fill="#c040bf" stroke="black" cx="968.8" cy="-487.99" rx="29.01" ry="18"/>
<text xml:space="preserve" text-anchor="middle" x="968.8" y="-484.99" font-family="Helvetica,sans-Serif" font-size="10.00" fill="#ffffff">uvicorn</text>
</g>
<!-- uvicorn&#45;&gt;src_main -->
<g id="edge35" class="edge">
<title>uvicorn-&gt;src_main</title>
<path fill="none" stroke="black" d="M988.55,-474.63C1012.02,-459.56 1047.62,-435.35 1043.8,-429.36"/>
<path fill="none" stroke="black" d="M1043.8,-428.36C1032.1,-409.97 1011.53,-397.12 993.11,-388.67"/>
<polygon fill="#c040bf" stroke="black" points="994.56,-385.49 983.99,-384.8 991.82,-391.93 994.56,-385.49"/>
</g>
</g>
</svg>